<svg width="53" height="54" viewBox="0 0 53 54" fill="none" xmlns="http://www.w3.org/2000/svg">
<g filter="url(#filter0_f_25_60)">
<rect x="1" y="1" width="50" height="50" rx="10" fill="url(#paint0_linear_25_60)"/>
<rect x="1.5" y="1.5" width="49" height="49" rx="9.5" stroke="url(#paint1_linear_25_60)"/>
</g>
<mask id="mask0_25_60" style="mask-type:alpha" maskUnits="userSpaceOnUse" x="1" y="1" width="50" height="50">
<rect x="1" y="1" width="50" height="50" rx="10" fill="url(#paint2_linear_25_60)"/>
</mask>
<g mask="url(#mask0_25_60)">
<g opacity="0.2" filter="url(#filter1_f_25_60)">
<circle cx="17.5" cy="7.5" r="33.5" fill="url(#paint3_linear_25_60)"/>
</g>
</g>
<g filter="url(#filter2_d_25_60)">
<path d="M29.2941 26.3529H30.4706V27.5294H29.2941V26.3529ZM28.1176 26.3529H29.2941V27.5294H28.1176V26.3529ZM26.9412 26.3529H28.1176V27.5294H26.9412V26.3529ZM25.7647 26.3529H26.9412V27.5294H25.7647V26.3529ZM25.7647 27.5294H26.9412V28.7059H25.7647V27.5294ZM25.7647 28.7059H26.9412V29.8824H25.7647V28.7059ZM25.7647 29.8824H26.9412V31.0588H25.7647V29.8824ZM25.7647 31.0588H26.9412V32.2353H25.7647V31.0588ZM25.7647 32.2353H26.9412V33.4118H25.7647V32.2353ZM25.7647 33.4118H26.9412V34.5882H25.7647V33.4118ZM25.7647 34.5882H26.9412V35.7647H25.7647V34.5882ZM25.7647 35.7647H26.9412V36.9412H25.7647V35.7647ZM26.9412 35.7647H28.1176V36.9412H26.9412V35.7647ZM28.1176 35.7647H29.2941V36.9412H28.1176V35.7647ZM29.2941 35.7647H30.4706V36.9412H29.2941V35.7647ZM29.2941 34.5882H30.4706V35.7647H29.2941V34.5882ZM29.2941 33.4118H30.4706V34.5882H29.2941V33.4118ZM29.2941 32.2353H30.4706V33.4118H29.2941V32.2353ZM28.1176 32.2353H29.2941V33.4118H28.1176V32.2353ZM28.1176 31.0588H29.2941V32.2353H28.1176V31.0588ZM28.1176 29.8824H29.2941V31.0588H28.1176V29.8824ZM28.1176 28.7059H29.2941V29.8824H28.1176V28.7059ZM28.1176 27.5294H29.2941V28.7059H28.1176V27.5294ZM29.2941 27.5294H30.4706V28.7059H29.2941V27.5294ZM29.2941 28.7059H30.4706V29.8824H29.2941V28.7059ZM29.2941 29.8824H30.4706V31.0588H29.2941V29.8824ZM29.2941 31.0588H30.4706V32.2353H29.2941V31.0588ZM26.9412 29.8824H28.1176V31.0588H26.9412V29.8824ZM26.9412 28.7059H28.1176V29.8824H26.9412V28.7059ZM26.9412 27.5294H28.1176V28.7059H26.9412V27.5294ZM26.9412 31.0588H28.1176V32.2353H26.9412V31.0588ZM26.9412 32.2353H28.1176V33.4118H26.9412V32.2353ZM26.9412 33.4118H28.1176V34.5882H26.9412V33.4118ZM26.9412 34.5882H28.1176V35.7647H26.9412V34.5882ZM28.1176 34.5882H29.2941V35.7647H28.1176V34.5882ZM28.1176 33.4118H29.2941V34.5882H28.1176V33.4118ZM29.2941 36.9412H30.4706V38.1176H29.2941V36.9412ZM28.1176 36.9412H29.2941V38.1176H28.1176V36.9412ZM26.9412 36.9412H28.1176V38.1176H26.9412V36.9412ZM25.7647 36.9412H26.9412V38.1176H25.7647V36.9412ZM24.5882 36.9412H25.7647V38.1176H24.5882V36.9412ZM28.1176 38.1176H29.2941V39.2941H28.1176V38.1176ZM26.9412 38.1176H28.1176V39.2941H26.9412V38.1176ZM25.7647 38.1176H26.9412V39.2941H25.7647V38.1176ZM24.5882 38.1176H25.7647V39.2941H24.5882V38.1176ZM23.4118 38.1176H24.5882V39.2941H23.4118V38.1176ZM23.4118 39.2941H24.5882V40.4706H23.4118V39.2941ZM24.5882 39.2941H25.7647V40.4706H24.5882V39.2941ZM25.7647 39.2941H26.9412V40.4706H25.7647V39.2941ZM26.9412 39.2941H28.1176V40.4706H26.9412V39.2941ZM25.7647 40.4706H26.9412V41.6471H25.7647V40.4706ZM24.5882 40.4706H25.7647V41.6471H24.5882V40.4706ZM23.4118 40.4706H24.5882V41.6471H23.4118V40.4706ZM23.4118 41.6471H24.5882V42.8235H23.4118V41.6471ZM24.5882 41.6471H25.7647V42.8235H24.5882V41.6471ZM23.4118 42.8235H24.5882V44H23.4118V42.8235ZM22.2353 42.8235H23.4118V44H22.2353V42.8235ZM21.0588 42.8235H22.2353V44H21.0588V42.8235ZM21.0588 41.6471H22.2353V42.8235H21.0588V41.6471ZM22.2353 41.6471H23.4118V42.8235H22.2353V41.6471ZM22.2353 40.4706H23.4118V41.6471H22.2353V40.4706ZM22.2353 39.2941H23.4118V40.4706H22.2353V39.2941ZM21.0588 39.2941H22.2353V40.4706H21.0588V39.2941ZM21.0588 38.1176H22.2353V39.2941H21.0588V38.1176ZM19.8824 39.2941H21.0588V40.4706H19.8824V39.2941ZM19.8824 38.1176H21.0588V39.2941H19.8824V38.1176ZM19.8824 36.9412H21.0588V38.1176H19.8824V36.9412ZM18.7059 36.9412H19.8824V38.1176H18.7059V36.9412ZM17.5294 36.9412H18.7059V38.1176H17.5294V36.9412ZM16.3529 36.9412H17.5294V38.1176H16.3529V36.9412ZM16.3529 38.1176H17.5294V39.2941H16.3529V38.1176ZM17.5294 38.1176H18.7059V39.2941H17.5294V38.1176ZM18.7059 38.1176H19.8824V39.2941H18.7059V38.1176ZM18.7059 39.2941H19.8824V40.4706H18.7059V39.2941ZM17.5294 39.2941H18.7059V40.4706H17.5294V39.2941ZM19.8824 40.4706H21.0588V41.6471H19.8824V40.4706ZM18.7059 40.4706H19.8824V41.6471H18.7059V40.4706ZM21.0588 40.4706H22.2353V41.6471H21.0588V40.4706ZM19.8824 41.6471H21.0588V42.8235H19.8824V41.6471ZM15.1765 36.9412H16.3529V38.1176H15.1765V36.9412ZM15.1765 35.7647H16.3529V36.9412H15.1765V35.7647ZM15.1765 34.5882H16.3529V35.7647H15.1765V34.5882ZM15.1765 33.4118H16.3529V34.5882H15.1765V33.4118ZM15.1765 32.2353H16.3529V33.4118H15.1765V32.2353ZM16.3529 31.0588H17.5294V32.2353H16.3529V31.0588ZM16.3529 29.8824H17.5294V31.0588H16.3529V29.8824ZM16.3529 28.7059H17.5294V29.8824H16.3529V28.7059ZM16.3529 27.5294H17.5294V28.7059H16.3529V27.5294ZM16.3529 26.3529H17.5294V27.5294H16.3529V26.3529ZM15.1765 27.5294H16.3529V28.7059H15.1765V27.5294ZM15.1765 26.3529H16.3529V27.5294H15.1765V26.3529ZM15.1765 28.7059H16.3529V29.8824H15.1765V28.7059ZM15.1765 29.8824H16.3529V31.0588H15.1765V29.8824ZM15.1765 31.0588H16.3529V32.2353H15.1765V31.0588ZM16.3529 34.5882H17.5294V35.7647H16.3529V34.5882ZM16.3529 35.7647H17.5294V36.9412H16.3529V35.7647ZM16.3529 33.4118H17.5294V34.5882H16.3529V33.4118ZM16.3529 32.2353H17.5294V33.4118H16.3529V32.2353ZM17.5294 35.7647H18.7059V36.9412H17.5294V35.7647ZM17.5294 34.5882H18.7059V35.7647H17.5294V34.5882ZM18.7059 34.5882H19.8824V35.7647H18.7059V34.5882ZM18.7059 35.7647H19.8824V36.9412H18.7059V35.7647ZM18.7059 33.4118H19.8824V34.5882H18.7059V33.4118ZM18.7059 32.2353H19.8824V33.4118H18.7059V32.2353ZM18.7059 31.0588H19.8824V32.2353H18.7059V31.0588ZM18.7059 29.8824H19.8824V31.0588H18.7059V29.8824ZM18.7059 28.7059H19.8824V29.8824H18.7059V28.7059ZM18.7059 27.5294H19.8824V28.7059H18.7059V27.5294ZM17.5294 27.5294H18.7059V28.7059H17.5294V27.5294ZM17.5294 26.3529H18.7059V27.5294H17.5294V26.3529ZM18.7059 26.3529H19.8824V27.5294H18.7059V26.3529ZM17.5294 28.7059H18.7059V29.8824H17.5294V28.7059ZM17.5294 29.8824H18.7059V31.0588H17.5294V29.8824ZM17.5294 31.0588H18.7059V32.2353H17.5294V31.0588ZM17.5294 32.2353H18.7059V33.4118H17.5294V32.2353ZM17.5294 33.4118H18.7059V34.5882H17.5294V33.4118ZM37.534 42.8235H38.7105V44H37.534V42.8235ZM38.7105 42.8235H39.8869V44H38.7105V42.8235ZM39.8869 42.8235H41.0634V44H39.8869V42.8235ZM41.0634 42.8235H42.2399V44H41.0634V42.8235ZM41.0634 41.6471H42.2399V42.8235H41.0634V41.6471ZM39.8869 41.6471H41.0634V42.8235H39.8869V41.6471ZM38.7105 41.6471H39.8869V42.8235H38.7105V41.6471ZM37.534 41.6471H38.7105V42.8235H37.534V41.6471ZM37.534 40.4706H38.7105V41.6471H37.534V40.4706ZM38.7105 39.2941H39.8869V40.4706H38.7105V39.2941ZM39.8869 39.2941H41.0634V40.4706H39.8869V39.2941ZM41.0634 39.2941H42.2399V40.4706H41.0634V39.2941ZM41.0634 40.4706H42.2399V41.6471H41.0634V40.4706ZM39.8869 40.4706H41.0634V41.6471H39.8869V40.4706ZM38.7105 40.4706H39.8869V41.6471H38.7105V40.4706ZM37.534 39.2941H38.7105V40.4706H37.534V39.2941ZM37.534 38.1176H38.7105V39.2941H37.534V38.1176ZM38.7105 36.9412H39.8869V38.1176H38.7105V36.9412ZM39.8869 36.9412H41.0634V38.1176H39.8869V36.9412ZM39.8869 38.1176H41.0634V39.2941H39.8869V38.1176ZM41.0634 38.1176H42.2399V39.2941H41.0634V38.1176ZM41.0634 36.9412H42.2399V38.1176H41.0634V36.9412ZM41.0634 35.7647H42.2399V36.9412H41.0634V35.7647ZM39.8869 35.7647H41.0634V36.9412H39.8869V35.7647ZM39.8869 34.5882H41.0634V35.7647H39.8869V34.5882ZM38.7105 34.5882H39.8869V35.7647H38.7105V34.5882ZM37.534 34.5882H38.7105V35.7647H37.534V34.5882ZM37.534 35.7647H38.7105V36.9412H37.534V35.7647ZM37.534 36.9412H38.7105V38.1176H37.534V36.9412ZM38.7105 38.1176H39.8869V39.2941H38.7105V38.1176ZM38.7105 35.7647H39.8869V36.9412H38.7105V35.7647ZM37.534 33.4118H38.7105V34.5882H37.534V33.4118ZM37.534 32.2353H38.7105V33.4118H37.534V32.2353ZM37.534 31.0588H38.7105V32.2353H37.534V31.0588ZM37.534 29.8824H38.7105V31.0588H37.534V29.8824ZM37.534 28.7059H38.7105V29.8824H37.534V28.7059ZM37.534 27.5294H38.7105V28.7059H37.534V27.5294ZM37.534 26.3529H38.7105V27.5294H37.534V26.3529ZM37.534 25.1765H38.7105V26.3529H37.534V25.1765ZM37.534 24H38.7105V25.1765H37.534V24ZM37.534 22.8235H38.7105V24H37.534V22.8235ZM37.534 21.6471H38.7105V22.8235H37.534V21.6471ZM37.534 20.4706H38.7105V21.6471H37.534V20.4706ZM38.7105 20.4706H39.8869V21.6471H38.7105V20.4706ZM39.8869 20.4706H41.0634V21.6471H39.8869V20.4706ZM41.0634 20.4706H42.2399V21.6471H41.0634V20.4706ZM41.0634 21.6471H42.2399V22.8235H41.0634V21.6471ZM41.0634 22.8235H42.2399V24H41.0634V22.8235ZM39.8869 24H41.0634V25.1765H39.8869V24ZM39.8869 25.1765H41.0634V26.3529H39.8869V25.1765ZM39.8869 26.3529H41.0634V27.5294H39.8869V26.3529ZM39.8869 27.5294H41.0634V28.7059H39.8869V27.5294ZM41.0634 28.7059H42.2399V29.8824H41.0634V28.7059ZM41.0634 29.8824H42.2399V31.0588H41.0634V29.8824ZM41.0634 31.0588H42.2399V32.2353H41.0634V31.0588ZM41.0634 32.2353H42.2399V33.4118H41.0634V32.2353ZM41.0634 33.4118H42.2399V34.5882H41.0634V33.4118ZM41.0634 34.5882H42.2399V35.7647H41.0634V34.5882ZM41.0634 27.5294H42.2399V28.7059H41.0634V27.5294ZM41.0634 26.3529H42.2399V27.5294H41.0634V26.3529ZM41.0634 25.1765H42.2399V26.3529H41.0634V25.1765ZM41.0634 24H42.2399V25.1765H41.0634V24ZM39.8869 21.6471H41.0634V22.8235H39.8869V21.6471ZM38.7105 21.6471H39.8869V22.8235H38.7105V21.6471ZM38.7105 22.8235H39.8869V24H38.7105V22.8235ZM38.7105 24H39.8869V25.1765H38.7105V24ZM38.7105 25.1765H39.8869V26.3529H38.7105V25.1765ZM38.7105 26.3529H39.8869V27.5294H38.7105V26.3529ZM39.8869 22.8235H41.0634V24H39.8869V22.8235ZM39.8869 28.7059H41.0634V29.8824H39.8869V28.7059ZM38.7105 28.7059H39.8869V29.8824H38.7105V28.7059ZM38.7105 29.8824H39.8869V31.0588H38.7105V29.8824ZM38.7105 31.0588H39.8869V32.2353H38.7105V31.0588ZM38.7105 32.2353H39.8869V33.4118H38.7105V32.2353ZM39.8869 33.4118H41.0634V34.5882H39.8869V33.4118ZM39.8869 32.2353H41.0634V33.4118H39.8869V32.2353ZM39.8869 31.0588H41.0634V32.2353H39.8869V31.0588ZM39.8869 29.8824H41.0634V31.0588H39.8869V29.8824ZM38.7105 27.5294H39.8869V28.7059H38.7105V27.5294ZM38.7105 33.4118H39.8869V34.5882H38.7105V33.4118ZM36.3575 20.4706H37.534V21.6471H36.3575V20.4706ZM35.1811 20.4706H36.3575V21.6471H35.1811V20.4706ZM34.0046 20.4706H35.1811V21.6471H34.0046V20.4706ZM34.0046 24H35.1811V25.1765H34.0046V24ZM35.1811 24H36.3575V25.1765H35.1811V24ZM36.3575 24H37.534V25.1765H36.3575V24ZM36.3575 22.8235H37.534V24H36.3575V22.8235ZM36.3575 21.6471H37.534V22.8235H36.3575V21.6471ZM35.1811 21.6471H36.3575V22.8235H35.1811V21.6471ZM34.0046 21.6471H35.1811V22.8235H34.0046V21.6471ZM34.0046 22.8235H35.1811V24H34.0046V22.8235ZM35.1811 22.8235H36.3575V24H35.1811V22.8235Z" fill="white"/>
</g>
<defs>
<filter id="filter0_f_25_60" x="0" y="0" width="52" height="52" filterUnits="userSpaceOnUse" color-interpolation-filters="sRGB">
<feFlood flood-opacity="0" result="BackgroundImageFix"/>
<feBlend mode="normal" in="SourceGraphic" in2="BackgroundImageFix" result="shape"/>
<feGaussianBlur stdDeviation="0.5" result="effect1_foregroundBlur_25_60"/>
</filter>
<filter id="filter1_f_25_60" x="-16.8" y="-26.8" width="68.6" height="68.6" filterUnits="userSpaceOnUse" color-interpolation-filters="sRGB">
<feFlood flood-opacity="0" result="BackgroundImageFix"/>
<feBlend mode="normal" in="SourceGraphic" in2="BackgroundImageFix" result="shape"/>
<feGaussianBlur stdDeviation="0.4" result="effect1_foregroundBlur_25_60"/>
</filter>
<filter id="filter2_d_25_60" x="5.17651" y="10.4706" width="47.0634" height="43.5294" filterUnits="userSpaceOnUse" color-interpolation-filters="sRGB">
<feFlood flood-opacity="0" result="BackgroundImageFix"/>
<feColorMatrix in="SourceAlpha" type="matrix" values="0 0 0 0 0 0 0 0 0 0 0 0 0 0 0 0 0 0 127 0" result="hardAlpha"/>
<feOffset/>
<feGaussianBlur stdDeviation="5"/>
<feComposite in2="hardAlpha" operator="out"/>
<feColorMatrix type="matrix" values="0 0 0 0 0.898039 0 0 0 0 0.388235 0 0 0 0 0.6 0 0 0 0.4 0"/>
<feBlend mode="normal" in2="BackgroundImageFix" result="effect1_dropShadow_25_60"/>
<feBlend mode="normal" in="SourceGraphic" in2="effect1_dropShadow_25_60" result="shape"/>
</filter>
<linearGradient id="paint0_linear_25_60" x1="48.5" y1="-3.5" x2="0.999997" y2="51" gradientUnits="userSpaceOnUse">
<stop stop-color="#E56399"/>
<stop offset="1" stop-color="#FFD3AC"/>
</linearGradient>
<linearGradient id="paint1_linear_25_60" x1="51" y1="1" x2="2.5" y2="51" gradientUnits="userSpaceOnUse">
<stop stop-color="white"/>
<stop offset="0.495192" stop-color="white" stop-opacity="0"/>
<stop offset="1" stop-color="white"/>
</linearGradient>
<linearGradient id="paint2_linear_25_60" x1="48.5" y1="-3.5" x2="0.999998" y2="51" gradientUnits="userSpaceOnUse">
<stop stop-color="#E56399"/>
<stop offset="1" stop-color="#FFD3AC"/>
</linearGradient>
<linearGradient id="paint3_linear_25_60" x1="53.5" y1="0.499994" x2="-9.5" y2="26" gradientUnits="userSpaceOnUse">
<stop stop-color="white"/>
<stop offset="1" stop-color="white" stop-opacity="0.2"/>
</linearGradient>
</defs>
</svg>
