<svg width="62" height="62" viewBox="0 0 62 62" fill="none" xmlns="http://www.w3.org/2000/svg">
<g filter="url(#filter0_d_26_66)">
<g filter="url(#filter1_f_26_66)">
<rect x="6" y="4" width="50" height="50" rx="10" fill="url(#paint0_linear_26_66)"/>
<rect x="6.25" y="4.25" width="49.5" height="49.5" rx="9.75" stroke="url(#paint1_linear_26_66)" stroke-width="0.5"/>
</g>
<mask id="mask0_26_66" style="mask-type:alpha" maskUnits="userSpaceOnUse" x="6" y="4" width="50" height="50">
<rect x="6" y="4" width="50" height="50" rx="10" fill="url(#paint2_linear_26_66)"/>
</mask>
<g mask="url(#mask0_26_66)">
<circle opacity="0.2" cx="22.5" cy="10.5" r="33.5" fill="url(#paint3_linear_26_66)"/>
</g>
<g filter="url(#filter2_d_26_66)">
<path d="M34.2941 29.3529H35.4706V30.5294H34.2941V29.3529ZM33.1176 29.3529H34.2941V30.5294H33.1176V29.3529ZM31.9412 29.3529H33.1176V30.5294H31.9412V29.3529ZM30.7647 29.3529H31.9412V30.5294H30.7647V29.3529ZM30.7647 30.5294H31.9412V31.7059H30.7647V30.5294ZM30.7647 31.7059H31.9412V32.8824H30.7647V31.7059ZM30.7647 32.8824H31.9412V34.0588H30.7647V32.8824ZM30.7647 34.0588H31.9412V35.2353H30.7647V34.0588ZM30.7647 35.2353H31.9412V36.4118H30.7647V35.2353ZM30.7647 36.4118H31.9412V37.5882H30.7647V36.4118ZM30.7647 37.5882H31.9412V38.7647H30.7647V37.5882ZM30.7647 38.7647H31.9412V39.9412H30.7647V38.7647ZM31.9412 38.7647H33.1176V39.9412H31.9412V38.7647ZM33.1176 38.7647H34.2941V39.9412H33.1176V38.7647ZM34.2941 38.7647H35.4706V39.9412H34.2941V38.7647ZM34.2941 37.5882H35.4706V38.7647H34.2941V37.5882ZM34.2941 36.4118H35.4706V37.5882H34.2941V36.4118ZM34.2941 35.2353H35.4706V36.4118H34.2941V35.2353ZM33.1176 35.2353H34.2941V36.4118H33.1176V35.2353ZM33.1176 34.0588H34.2941V35.2353H33.1176V34.0588ZM33.1176 32.8824H34.2941V34.0588H33.1176V32.8824ZM33.1176 31.7059H34.2941V32.8824H33.1176V31.7059ZM33.1176 30.5294H34.2941V31.7059H33.1176V30.5294ZM34.2941 30.5294H35.4706V31.7059H34.2941V30.5294ZM34.2941 31.7059H35.4706V32.8824H34.2941V31.7059ZM34.2941 32.8824H35.4706V34.0588H34.2941V32.8824ZM34.2941 34.0588H35.4706V35.2353H34.2941V34.0588ZM31.9412 32.8824H33.1176V34.0588H31.9412V32.8824ZM31.9412 31.7059H33.1176V32.8824H31.9412V31.7059ZM31.9412 30.5294H33.1176V31.7059H31.9412V30.5294ZM31.9412 34.0588H33.1176V35.2353H31.9412V34.0588ZM31.9412 35.2353H33.1176V36.4118H31.9412V35.2353ZM31.9412 36.4118H33.1176V37.5882H31.9412V36.4118ZM31.9412 37.5882H33.1176V38.7647H31.9412V37.5882ZM33.1176 37.5882H34.2941V38.7647H33.1176V37.5882ZM33.1176 36.4118H34.2941V37.5882H33.1176V36.4118ZM34.2941 39.9412H35.4706V41.1176H34.2941V39.9412ZM33.1176 39.9412H34.2941V41.1176H33.1176V39.9412ZM31.9412 39.9412H33.1176V41.1176H31.9412V39.9412ZM30.7647 39.9412H31.9412V41.1176H30.7647V39.9412ZM29.5882 39.9412H30.7647V41.1176H29.5882V39.9412ZM33.1176 41.1176H34.2941V42.2941H33.1176V41.1176ZM31.9412 41.1176H33.1176V42.2941H31.9412V41.1176ZM30.7647 41.1176H31.9412V42.2941H30.7647V41.1176ZM29.5882 41.1176H30.7647V42.2941H29.5882V41.1176ZM28.4118 41.1176H29.5882V42.2941H28.4118V41.1176ZM28.4118 42.2941H29.5882V43.4706H28.4118V42.2941ZM29.5882 42.2941H30.7647V43.4706H29.5882V42.2941ZM30.7647 42.2941H31.9412V43.4706H30.7647V42.2941ZM31.9412 42.2941H33.1176V43.4706H31.9412V42.2941ZM30.7647 43.4706H31.9412V44.6471H30.7647V43.4706ZM29.5882 43.4706H30.7647V44.6471H29.5882V43.4706ZM28.4118 43.4706H29.5882V44.6471H28.4118V43.4706ZM28.4118 44.6471H29.5882V45.8235H28.4118V44.6471ZM29.5882 44.6471H30.7647V45.8235H29.5882V44.6471ZM28.4118 45.8235H29.5882V47H28.4118V45.8235ZM27.2353 45.8235H28.4118V47H27.2353V45.8235ZM26.0588 45.8235H27.2353V47H26.0588V45.8235ZM26.0588 44.6471H27.2353V45.8235H26.0588V44.6471ZM27.2353 44.6471H28.4118V45.8235H27.2353V44.6471ZM27.2353 43.4706H28.4118V44.6471H27.2353V43.4706ZM27.2353 42.2941H28.4118V43.4706H27.2353V42.2941ZM26.0588 42.2941H27.2353V43.4706H26.0588V42.2941ZM26.0588 41.1176H27.2353V42.2941H26.0588V41.1176ZM24.8824 42.2941H26.0588V43.4706H24.8824V42.2941ZM24.8824 41.1176H26.0588V42.2941H24.8824V41.1176ZM24.8824 39.9412H26.0588V41.1176H24.8824V39.9412ZM23.7059 39.9412H24.8824V41.1176H23.7059V39.9412ZM22.5294 39.9412H23.7059V41.1176H22.5294V39.9412ZM21.3529 39.9412H22.5294V41.1176H21.3529V39.9412ZM21.3529 41.1176H22.5294V42.2941H21.3529V41.1176ZM22.5294 41.1176H23.7059V42.2941H22.5294V41.1176ZM23.7059 41.1176H24.8824V42.2941H23.7059V41.1176ZM23.7059 42.2941H24.8824V43.4706H23.7059V42.2941ZM22.5294 42.2941H23.7059V43.4706H22.5294V42.2941ZM24.8824 43.4706H26.0588V44.6471H24.8824V43.4706ZM23.7059 43.4706H24.8824V44.6471H23.7059V43.4706ZM26.0588 43.4706H27.2353V44.6471H26.0588V43.4706ZM24.8824 44.6471H26.0588V45.8235H24.8824V44.6471ZM20.1765 39.9412H21.3529V41.1176H20.1765V39.9412ZM20.1765 38.7647H21.3529V39.9412H20.1765V38.7647ZM20.1765 37.5882H21.3529V38.7647H20.1765V37.5882ZM20.1765 36.4118H21.3529V37.5882H20.1765V36.4118ZM20.1765 35.2353H21.3529V36.4118H20.1765V35.2353ZM21.3529 34.0588H22.5294V35.2353H21.3529V34.0588ZM21.3529 32.8824H22.5294V34.0588H21.3529V32.8824ZM21.3529 31.7059H22.5294V32.8824H21.3529V31.7059ZM21.3529 30.5294H22.5294V31.7059H21.3529V30.5294ZM21.3529 29.3529H22.5294V30.5294H21.3529V29.3529ZM20.1765 30.5294H21.3529V31.7059H20.1765V30.5294ZM20.1765 29.3529H21.3529V30.5294H20.1765V29.3529ZM20.1765 31.7059H21.3529V32.8824H20.1765V31.7059ZM20.1765 32.8824H21.3529V34.0588H20.1765V32.8824ZM20.1765 34.0588H21.3529V35.2353H20.1765V34.0588ZM21.3529 37.5882H22.5294V38.7647H21.3529V37.5882ZM21.3529 38.7647H22.5294V39.9412H21.3529V38.7647ZM21.3529 36.4118H22.5294V37.5882H21.3529V36.4118ZM21.3529 35.2353H22.5294V36.4118H21.3529V35.2353ZM22.5294 38.7647H23.7059V39.9412H22.5294V38.7647ZM22.5294 37.5882H23.7059V38.7647H22.5294V37.5882ZM23.7059 37.5882H24.8824V38.7647H23.7059V37.5882ZM23.7059 38.7647H24.8824V39.9412H23.7059V38.7647ZM23.7059 36.4118H24.8824V37.5882H23.7059V36.4118ZM23.7059 35.2353H24.8824V36.4118H23.7059V35.2353ZM23.7059 34.0588H24.8824V35.2353H23.7059V34.0588ZM23.7059 32.8824H24.8824V34.0588H23.7059V32.8824ZM23.7059 31.7059H24.8824V32.8824H23.7059V31.7059ZM23.7059 30.5294H24.8824V31.7059H23.7059V30.5294ZM22.5294 30.5294H23.7059V31.7059H22.5294V30.5294ZM22.5294 29.3529H23.7059V30.5294H22.5294V29.3529ZM23.7059 29.3529H24.8824V30.5294H23.7059V29.3529ZM22.5294 31.7059H23.7059V32.8824H22.5294V31.7059ZM22.5294 32.8824H23.7059V34.0588H22.5294V32.8824ZM22.5294 34.0588H23.7059V35.2353H22.5294V34.0588ZM22.5294 35.2353H23.7059V36.4118H22.5294V35.2353ZM22.5294 36.4118H23.7059V37.5882H22.5294V36.4118ZM42.534 45.8235H43.7105V47H42.534V45.8235ZM43.7105 45.8235H44.8869V47H43.7105V45.8235ZM44.8869 45.8235H46.0634V47H44.8869V45.8235ZM46.0634 45.8235H47.2399V47H46.0634V45.8235ZM46.0634 44.6471H47.2399V45.8235H46.0634V44.6471ZM44.8869 44.6471H46.0634V45.8235H44.8869V44.6471ZM43.7105 44.6471H44.8869V45.8235H43.7105V44.6471ZM42.534 44.6471H43.7105V45.8235H42.534V44.6471ZM42.534 43.4706H43.7105V44.6471H42.534V43.4706ZM43.7105 42.2941H44.8869V43.4706H43.7105V42.2941ZM44.8869 42.2941H46.0634V43.4706H44.8869V42.2941ZM46.0634 42.2941H47.2399V43.4706H46.0634V42.2941ZM46.0634 43.4706H47.2399V44.6471H46.0634V43.4706ZM44.8869 43.4706H46.0634V44.6471H44.8869V43.4706ZM43.7105 43.4706H44.8869V44.6471H43.7105V43.4706ZM42.534 42.2941H43.7105V43.4706H42.534V42.2941ZM42.534 41.1176H43.7105V42.2941H42.534V41.1176ZM43.7105 39.9412H44.8869V41.1176H43.7105V39.9412ZM44.8869 39.9412H46.0634V41.1176H44.8869V39.9412ZM44.8869 41.1176H46.0634V42.2941H44.8869V41.1176ZM46.0634 41.1176H47.2399V42.2941H46.0634V41.1176ZM46.0634 39.9412H47.2399V41.1176H46.0634V39.9412ZM46.0634 38.7647H47.2399V39.9412H46.0634V38.7647ZM44.8869 38.7647H46.0634V39.9412H44.8869V38.7647ZM44.8869 37.5882H46.0634V38.7647H44.8869V37.5882ZM43.7105 37.5882H44.8869V38.7647H43.7105V37.5882ZM42.534 37.5882H43.7105V38.7647H42.534V37.5882ZM42.534 38.7647H43.7105V39.9412H42.534V38.7647ZM42.534 39.9412H43.7105V41.1176H42.534V39.9412ZM43.7105 41.1176H44.8869V42.2941H43.7105V41.1176ZM43.7105 38.7647H44.8869V39.9412H43.7105V38.7647ZM42.534 36.4118H43.7105V37.5882H42.534V36.4118ZM42.534 35.2353H43.7105V36.4118H42.534V35.2353ZM42.534 34.0588H43.7105V35.2353H42.534V34.0588ZM42.534 32.8824H43.7105V34.0588H42.534V32.8824ZM42.534 31.7059H43.7105V32.8824H42.534V31.7059ZM42.534 30.5294H43.7105V31.7059H42.534V30.5294ZM42.534 29.3529H43.7105V30.5294H42.534V29.3529ZM42.534 28.1765H43.7105V29.3529H42.534V28.1765ZM42.534 27H43.7105V28.1765H42.534V27ZM42.534 25.8235H43.7105V27H42.534V25.8235ZM42.534 24.6471H43.7105V25.8235H42.534V24.6471ZM42.534 23.4706H43.7105V24.6471H42.534V23.4706ZM43.7105 23.4706H44.8869V24.6471H43.7105V23.4706ZM44.8869 23.4706H46.0634V24.6471H44.8869V23.4706ZM46.0634 23.4706H47.2399V24.6471H46.0634V23.4706ZM46.0634 24.6471H47.2399V25.8235H46.0634V24.6471ZM46.0634 25.8235H47.2399V27H46.0634V25.8235ZM44.8869 27H46.0634V28.1765H44.8869V27ZM44.8869 28.1765H46.0634V29.3529H44.8869V28.1765ZM44.8869 29.3529H46.0634V30.5294H44.8869V29.3529ZM44.8869 30.5294H46.0634V31.7059H44.8869V30.5294ZM46.0634 31.7059H47.2399V32.8824H46.0634V31.7059ZM46.0634 32.8824H47.2399V34.0588H46.0634V32.8824ZM46.0634 34.0588H47.2399V35.2353H46.0634V34.0588ZM46.0634 35.2353H47.2399V36.4118H46.0634V35.2353ZM46.0634 36.4118H47.2399V37.5882H46.0634V36.4118ZM46.0634 37.5882H47.2399V38.7647H46.0634V37.5882ZM46.0634 30.5294H47.2399V31.7059H46.0634V30.5294ZM46.0634 29.3529H47.2399V30.5294H46.0634V29.3529ZM46.0634 28.1765H47.2399V29.3529H46.0634V28.1765ZM46.0634 27H47.2399V28.1765H46.0634V27ZM44.8869 24.6471H46.0634V25.8235H44.8869V24.6471ZM43.7105 24.6471H44.8869V25.8235H43.7105V24.6471ZM43.7105 25.8235H44.8869V27H43.7105V25.8235ZM43.7105 27H44.8869V28.1765H43.7105V27ZM43.7105 28.1765H44.8869V29.3529H43.7105V28.1765ZM43.7105 29.3529H44.8869V30.5294H43.7105V29.3529ZM44.8869 25.8235H46.0634V27H44.8869V25.8235ZM44.8869 31.7059H46.0634V32.8824H44.8869V31.7059ZM43.7105 31.7059H44.8869V32.8824H43.7105V31.7059ZM43.7105 32.8824H44.8869V34.0588H43.7105V32.8824ZM43.7105 34.0588H44.8869V35.2353H43.7105V34.0588ZM43.7105 35.2353H44.8869V36.4118H43.7105V35.2353ZM44.8869 36.4118H46.0634V37.5882H44.8869V36.4118ZM44.8869 35.2353H46.0634V36.4118H44.8869V35.2353ZM44.8869 34.0588H46.0634V35.2353H44.8869V34.0588ZM44.8869 32.8824H46.0634V34.0588H44.8869V32.8824ZM43.7105 30.5294H44.8869V31.7059H43.7105V30.5294ZM43.7105 36.4118H44.8869V37.5882H43.7105V36.4118ZM41.3575 23.4706H42.534V24.6471H41.3575V23.4706ZM40.1811 23.4706H41.3575V24.6471H40.1811V23.4706ZM39.0046 23.4706H40.1811V24.6471H39.0046V23.4706ZM39.0046 27H40.1811V28.1765H39.0046V27ZM40.1811 27H41.3575V28.1765H40.1811V27ZM41.3575 27H42.534V28.1765H41.3575V27ZM41.3575 25.8235H42.534V27H41.3575V25.8235ZM41.3575 24.6471H42.534V25.8235H41.3575V24.6471ZM40.1811 24.6471H41.3575V25.8235H40.1811V24.6471ZM39.0046 24.6471H40.1811V25.8235H39.0046V24.6471ZM39.0046 25.8235H40.1811V27H39.0046V25.8235ZM40.1811 25.8235H41.3575V27H40.1811V25.8235Z" fill="white"/>
</g>
</g>
<defs>
<filter id="filter0_d_26_66" x="0" y="0" width="62" height="62" filterUnits="userSpaceOnUse" color-interpolation-filters="sRGB">
<feFlood flood-opacity="0" result="BackgroundImageFix"/>
<feColorMatrix in="SourceAlpha" type="matrix" values="0 0 0 0 0 0 0 0 0 0 0 0 0 0 0 0 0 0 127 0" result="hardAlpha"/>
<feOffset dy="2"/>
<feGaussianBlur stdDeviation="3"/>
<feComposite in2="hardAlpha" operator="out"/>
<feColorMatrix type="matrix" values="0 0 0 0 0 0 0 0 0 0 0 0 0 0 0 0 0 0 0.15 0"/>
<feBlend mode="normal" in2="BackgroundImageFix" result="effect1_dropShadow_26_66"/>
<feBlend mode="normal" in="SourceGraphic" in2="effect1_dropShadow_26_66" result="shape"/>
</filter>
<filter id="filter1_f_26_66" x="5" y="3" width="52" height="52" filterUnits="userSpaceOnUse" color-interpolation-filters="sRGB">
<feFlood flood-opacity="0" result="BackgroundImageFix"/>
<feBlend mode="normal" in="SourceGraphic" in2="BackgroundImageFix" result="shape"/>
<feGaussianBlur stdDeviation="0.5" result="effect1_foregroundBlur_26_66"/>
</filter>
<filter id="filter2_d_26_66" x="10.1765" y="13.4706" width="47.0634" height="43.5294" filterUnits="userSpaceOnUse" color-interpolation-filters="sRGB">
<feFlood flood-opacity="0" result="BackgroundImageFix"/>
<feColorMatrix in="SourceAlpha" type="matrix" values="0 0 0 0 0 0 0 0 0 0 0 0 0 0 0 0 0 0 127 0" result="hardAlpha"/>
<feOffset/>
<feGaussianBlur stdDeviation="5"/>
<feComposite in2="hardAlpha" operator="out"/>
<feColorMatrix type="matrix" values="0 0 0 0 0.898039 0 0 0 0 0.388235 0 0 0 0 0.6 0 0 0 0.4 0"/>
<feBlend mode="normal" in2="BackgroundImageFix" result="effect1_dropShadow_26_66"/>
<feBlend mode="normal" in="SourceGraphic" in2="effect1_dropShadow_26_66" result="shape"/>
</filter>
<linearGradient id="paint0_linear_26_66" x1="53.5" y1="-0.5" x2="6" y2="54" gradientUnits="userSpaceOnUse">
<stop stop-color="#E56399"/>
<stop offset="1" stop-color="#FFD3AC"/>
</linearGradient>
<linearGradient id="paint1_linear_26_66" x1="56" y1="4" x2="7.5" y2="54" gradientUnits="userSpaceOnUse">
<stop stop-color="white"/>
<stop offset="0.495192" stop-color="white" stop-opacity="0"/>
<stop offset="1" stop-color="white"/>
</linearGradient>
<linearGradient id="paint2_linear_26_66" x1="53.5" y1="-0.500002" x2="6" y2="54" gradientUnits="userSpaceOnUse">
<stop stop-color="#E56399"/>
<stop offset="1" stop-color="#FFD3AC"/>
</linearGradient>
<linearGradient id="paint3_linear_26_66" x1="58.5" y1="3.49999" x2="-4.5" y2="29" gradientUnits="userSpaceOnUse">
<stop stop-color="white"/>
<stop offset="1" stop-color="white" stop-opacity="0.2"/>
</linearGradient>
</defs>
</svg>
